<svg width="20" height="21" viewBox="0 0 20 21" fill="none" xmlns="http://www.w3.org/2000/svg">
<g clip-path="url(#clip0_41_993)">
<path d="M16.9699 11.0892C17.1261 10.9329 17.2139 10.721 17.2139 10.5C17.2139 10.279 17.1261 10.0671 16.9699 9.91083L12.2557 5.19667C12.1788 5.11708 12.0869 5.05359 11.9852 5.00992C11.8835 4.96624 11.7742 4.94325 11.6635 4.94229C11.5529 4.94133 11.4432 4.96242 11.3408 5.00432C11.2383 5.04622 11.1453 5.10809 11.067 5.18634C10.9888 5.26458 10.9269 5.35763 10.885 5.46004C10.8431 5.56245 10.822 5.67219 10.823 5.78284C10.824 5.89348 10.847 6.00283 10.8906 6.1045C10.9343 6.20617 10.9978 6.29813 11.0774 6.375L14.369 9.66667H3.33321C3.1122 9.66667 2.90024 9.75447 2.74396 9.91075C2.58768 10.067 2.49988 10.279 2.49988 10.5C2.49988 10.721 2.58768 10.933 2.74396 11.0893C2.90024 11.2455 3.1122 11.3333 3.33321 11.3333H14.369L11.0774 14.625C10.9256 14.7822 10.8416 14.9927 10.8435 15.2112C10.8454 15.4297 10.933 15.6387 11.0875 15.7932C11.242 15.9477 11.451 16.0353 11.6695 16.0372C11.888 16.0391 12.0985 15.9551 12.2557 15.8033L16.9699 11.0892Z" fill="black"/>
</g>
<defs>
<clipPath id="clip0_41_993">
<rect width="20" height="20" fill="white" transform="matrix(0 1 -1 0 20 0.5)"/>
</clipPath>
</defs>
</svg>
