<svg width="24" height="24" viewBox="0 0 24 24" fill="none" xmlns="http://www.w3.org/2000/svg">
<g clip-path="url(#clip0_41_1179)">
<path d="M8.8261 7.94195C7.48341 7.93839 5.97103 8.04639 4.21092 8.31742C4.00317 8.34648 2.00161 9.48821 1.46199 10.2762C0.922361 11.0643 0.737768 12.5643 0.737768 12.5643C0.59208 13.1786 0.68058 14.194 0.721221 14.2927C0.776064 14.5065 1.08591 14.6859 1.61808 14.8156C1.68014 13.8285 2.49811 13.0594 3.48717 13.0582C4.52274 13.0582 5.36217 13.8977 5.36217 14.9332C5.36151 15.0159 5.35537 15.0984 5.3438 15.1803C5.37146 15.1807 5.40286 15.1814 5.42911 15.1817L16.6447 15.275C16.6234 15.1623 16.6126 15.0479 16.6122 14.9332C16.6122 13.8977 17.4518 13.0582 18.4872 13.0582C19.5228 13.0582 20.3622 13.8977 20.3622 14.9332C20.3622 15.0582 20.3498 15.183 20.3249 15.3055L23.2399 15.3298C23.3017 14.2605 23.5614 13.1374 22.9106 12.2023C22.6549 11.8348 21.4139 11.1692 18.2686 10.6713C16.6435 9.85525 15.0575 8.92993 13.3303 8.39968C11.9986 8.13554 10.5525 7.9465 8.8261 7.94195ZM8.01999 8.5037C8.30114 8.50576 8.55905 8.51729 8.77064 8.54167L9.11222 10.8082C7.17019 10.5694 5.19127 10.3552 4.14516 9.51911C4.16156 9.26129 4.51828 8.88807 4.91888 8.74539C5.14575 8.66457 6.80171 8.49479 8.02003 8.5037H8.01999ZM9.64303 8.52001C10.8155 8.53239 12.5508 8.64611 13.7447 9.17345C14.3167 9.43829 15.3935 10.0582 16.1136 10.6055L15.816 11.0993C13.861 11.0112 11.2556 10.9023 10.1863 10.7815L9.64303 8.52001ZM3.48717 13.8082C3.18881 13.8082 2.90266 13.9267 2.69168 14.1377C2.4807 14.3487 2.36217 14.6348 2.36217 14.9332C2.36217 15.2315 2.4807 15.5177 2.69168 15.7287C2.90266 15.9396 3.18881 16.0582 3.48717 16.0582C3.78554 16.0582 4.07169 15.9396 4.28267 15.7287C4.49365 15.5177 4.61217 15.2315 4.61217 14.9332C4.61217 14.6348 4.49365 14.3487 4.28267 14.1377C4.07169 13.9267 3.78554 13.8082 3.48717 13.8082ZM18.4872 13.8082C18.1888 13.8082 17.9027 13.9267 17.6917 14.1377C17.4807 14.3487 17.3622 14.6348 17.3622 14.9332C17.3622 15.2315 17.4807 15.5177 17.6917 15.7287C17.9027 15.9396 18.1888 16.0582 18.4872 16.0582C18.7855 16.0582 19.0717 15.9396 19.2827 15.7287C19.4936 15.5177 19.6122 15.2315 19.6122 14.9332C19.6122 14.6348 19.4936 14.3487 19.2827 14.1377C19.0717 13.9267 18.7855 13.8082 18.4872 13.8082Z" fill="white"/>
</g>
<defs>
<clipPath id="clip0_41_1179">
<rect width="24" height="24" fill="white"/>
</clipPath>
</defs>
</svg>
