<svg width="24" height="24" viewBox="0 0 24 24" fill="none" xmlns="http://www.w3.org/2000/svg">
<path d="M18.9601 9.6H16.8001V6.72C16.8001 3.2436 15.1981 1.2 12.0001 1.2C8.8021 1.2 7.2001 3.2436 7.2001 6.72V9.6H4.8001C4.1365 9.6 3.6001 10.3752 3.6001 11.0388V20.4C3.6001 21.0588 4.1137 21.7668 4.7413 21.9684L6.1777 22.4328C6.93949 22.6553 7.72677 22.7787 8.5201 22.8H15.4801C16.2731 22.7782 17.0599 22.6544 17.8213 22.4316L19.2565 21.9672C19.8853 21.7668 20.4001 21.0588 20.4001 20.4V11.0388C20.4001 10.3752 19.6225 9.6 18.9601 9.6ZM14.4001 9.6H9.6001V6.2388C9.6001 4.5048 10.5565 3.6 12.0001 3.6C13.4437 3.6 14.4001 4.5048 14.4001 6.2388V9.6Z" fill="#59642F"/>
</svg>
