<svg width="112" height="50" viewBox="0 0 112 50" fill="none" xmlns="http://www.w3.org/2000/svg">
<path d="M4.91935 20.3176V26.9775H12.1795V29.1212H4.91935V35.9812H13.037V38.125H2.31826V18.1738H13.037V20.3176H4.91935ZM16.001 30.2646C16.001 28.6449 16.3249 27.2347 16.9728 26.0342C17.6207 24.8147 18.5163 23.8714 19.6596 23.2045C20.822 22.5376 22.1464 22.2041 23.6327 22.2041C25.5573 22.2041 27.1389 22.6709 28.3776 23.6047C29.6352 24.5384 30.4641 25.8342 30.8643 27.492H28.0631C27.7964 26.5392 27.2723 25.7865 26.4911 25.2339C25.7288 24.6813 24.7761 24.405 23.6327 24.405C22.1464 24.405 20.9459 24.9195 20.0312 25.9485C19.1166 26.9584 18.6592 28.3971 18.6592 30.2646C18.6592 32.1511 19.1166 33.6088 20.0312 34.6378C20.9459 35.6668 22.1464 36.1813 23.6327 36.1813C24.7761 36.1813 25.7288 35.9146 26.4911 35.381C27.2533 34.8474 27.7773 34.0852 28.0631 33.0943H30.8643C30.4451 34.695 29.6066 35.9812 28.349 36.9531C27.0913 37.9059 25.5192 38.3823 23.6327 38.3823C22.1464 38.3823 20.822 38.0488 19.6596 37.3818C18.5163 36.7149 17.6207 35.7716 16.9728 34.5521C16.3249 33.3325 16.001 31.9034 16.001 30.2646ZM41.1664 38.3823C39.6991 38.3823 38.3652 38.0488 37.1647 37.3818C35.9833 36.7149 35.0495 35.7716 34.3635 34.5521C33.6966 33.3135 33.3631 31.8843 33.3631 30.2646C33.3631 28.6639 33.7061 27.2538 34.3921 26.0342C35.0972 24.7956 36.05 23.8524 37.2505 23.2045C38.451 22.5376 39.7944 22.2041 41.2807 22.2041C42.767 22.2041 44.1105 22.5376 45.311 23.2045C46.5115 23.8524 47.4547 24.7861 48.1407 26.0057C48.8458 27.2252 49.1983 28.6449 49.1983 30.2646C49.1983 31.8843 48.8362 33.3135 48.1121 34.5521C47.4071 35.7716 46.4448 36.7149 45.2252 37.3818C44.0056 38.0488 42.6527 38.3823 41.1664 38.3823ZM41.1664 36.0956C42.1001 36.0956 42.9766 35.8764 43.796 35.4382C44.6154 34.9999 45.2728 34.3425 45.7683 33.4659C46.2828 32.5894 46.54 31.5222 46.54 30.2646C46.54 29.0069 46.2923 27.9398 45.7969 27.0632C45.3014 26.1867 44.6535 25.5388 43.8532 25.1196C43.0529 24.6813 42.1858 24.4622 41.2521 24.4622C40.2993 24.4622 39.4228 24.6813 38.6225 25.1196C37.8412 25.5388 37.2123 26.1867 36.736 27.0632C36.2596 27.9398 36.0214 29.0069 36.0214 30.2646C36.0214 31.5413 36.25 32.6179 36.7074 33.4945C37.1838 34.3711 37.8126 35.0285 38.5939 35.4667C39.3751 35.886 40.2326 36.0956 41.1664 36.0956ZM63.1083 38.125L58.3635 29.9787H55.2193V38.125H52.6182V18.2024H59.0495C60.5549 18.2024 61.8221 18.4597 62.8511 18.9742C63.8991 19.4887 64.6804 20.1842 65.1949 21.0607C65.7094 21.9373 65.9667 22.9377 65.9667 24.062C65.9667 25.434 65.5665 26.644 64.7662 27.6921C63.9849 28.7401 62.8034 29.4357 61.2218 29.7787L66.2239 38.125H63.1083ZM55.2193 27.8922H59.0495C60.4596 27.8922 61.5172 27.5492 62.2222 26.8632C62.9273 26.1581 63.2798 25.2244 63.2798 24.062C63.2798 22.8806 62.9273 21.9659 62.2222 21.318C61.5362 20.6701 60.4787 20.3462 59.0495 20.3462H55.2193V27.8922ZM71.3517 19.9174C70.8563 19.9174 70.437 19.7459 70.094 19.4029C69.751 19.0599 69.5795 18.6407 69.5795 18.1452C69.5795 17.6498 69.751 17.2306 70.094 16.8876C70.437 16.5446 70.8563 16.3731 71.3517 16.3731C71.8281 16.3731 72.2283 16.5446 72.5522 16.8876C72.8952 17.2306 73.0667 17.6498 73.0667 18.1452C73.0667 18.6407 72.8952 19.0599 72.5522 19.4029C72.2283 19.7459 71.8281 19.9174 71.3517 19.9174ZM72.6094 22.4613V38.125H70.0083V22.4613H72.6094ZM76.0706 30.236C76.0706 28.6353 76.3946 27.2347 77.0425 26.0342C77.6904 24.8147 78.5764 23.8714 79.7007 23.2045C80.8441 22.5376 82.1208 22.2041 83.5309 22.2041C84.7504 22.2041 85.8842 22.4899 86.9323 23.0616C87.9804 23.6142 88.7807 24.3478 89.3333 25.2625V16.9733H91.963V38.125H89.3333V35.1809C88.8188 36.1146 88.0566 36.8864 87.0466 37.4962C86.0367 38.0869 84.8552 38.3823 83.5023 38.3823C82.1112 38.3823 80.8441 38.0393 79.7007 37.3532C78.5764 36.6672 77.6904 35.7049 77.0425 34.4663C76.3946 33.2277 76.0706 31.8176 76.0706 30.236ZM89.3333 30.2646C89.3333 29.0831 89.0951 28.0541 88.6187 27.1776C88.1423 26.301 87.4944 25.6341 86.6751 25.1767C85.8747 24.7004 84.9886 24.4622 84.0168 24.4622C83.045 24.4622 82.1589 24.6908 81.3586 25.1482C80.5582 25.6055 79.9199 26.2724 79.4435 27.149C78.9671 28.0256 78.7289 29.0546 78.7289 30.236C78.7289 31.4365 78.9671 32.4846 79.4435 33.3802C79.9199 34.2567 80.5582 34.9332 81.3586 35.4096C82.1589 35.8669 83.045 36.0956 84.0168 36.0956C84.9886 36.0956 85.8747 35.8669 86.6751 35.4096C87.4944 34.9332 88.1423 34.2567 88.6187 33.3802C89.0951 32.4846 89.3333 31.446 89.3333 30.2646ZM110.65 29.6929C110.65 30.1884 110.622 30.7124 110.564 31.265H98.045C98.1402 32.8085 98.6643 34.0185 99.617 34.8951C100.589 35.7526 101.761 36.1813 103.133 36.1813C104.257 36.1813 105.191 35.9241 105.934 35.4096C106.696 34.876 107.23 34.171 107.535 33.2944H110.336C109.917 34.7998 109.078 36.0289 107.82 36.9817C106.563 37.9154 105 38.3823 103.133 38.3823C101.646 38.3823 100.313 38.0488 99.1311 37.3818C97.9687 36.7149 97.0541 35.7716 96.3871 34.5521C95.7202 33.3135 95.3867 31.8843 95.3867 30.2646C95.3867 28.6449 95.7107 27.2252 96.3585 26.0057C97.0064 24.7861 97.9116 23.8524 99.074 23.2045C100.255 22.5376 101.608 22.2041 103.133 22.2041C104.619 22.2041 105.934 22.528 107.077 23.1759C108.221 23.8238 109.097 24.7194 109.707 25.8627C110.336 26.987 110.65 28.2637 110.65 29.6929ZM107.963 29.1498C107.963 28.1589 107.744 27.311 107.306 26.6059C106.868 25.8818 106.267 25.3387 105.505 24.9767C104.762 24.5956 103.933 24.405 103.018 24.405C101.704 24.405 100.579 24.8242 99.6456 25.6627C98.731 26.5011 98.2069 27.6635 98.0735 29.1498H107.963Z" fill="#A3A847"/>
<g clip-path="url(#clip0_110_126)">
<path d="M53.7802 4.77412C53.7688 4.57901 53.6861 4.39488 53.5479 4.25668C53.4097 4.11848 53.2256 4.03584 53.0305 4.02445C47.8705 3.72538 43.7273 5.29451 41.9469 8.23339C40.7705 10.1764 40.7725 12.536 41.9309 14.7871C41.2715 15.5719 40.7896 16.4901 40.5183 17.4787L38.8963 15.8508C39.6759 14.2228 39.646 12.5261 38.7966 11.1164C37.4807 8.94419 34.4431 7.7798 30.6718 8.00111C30.4767 8.01251 30.2926 8.09515 30.1544 8.23335C30.0162 8.37154 29.9336 8.55568 29.9222 8.75079C29.6999 12.5221 30.8652 15.5597 33.0375 16.8756C33.7543 17.3136 34.5781 17.5455 35.4181 17.5455C36.2335 17.5354 37.0362 17.3422 37.7668 16.9803L40.2591 19.4725V22.3307C40.2591 22.5422 40.3431 22.745 40.4927 22.8946C40.6423 23.0442 40.8451 23.1282 41.0566 23.1282C41.2682 23.1282 41.471 23.0442 41.6206 22.8946C41.7701 22.745 41.8542 22.5422 41.8542 22.3307V19.3908C41.8505 18.122 42.2823 16.8904 43.0774 15.9016C44.1031 16.4377 45.2408 16.7246 46.3981 16.739C47.517 16.7426 48.6151 16.4369 49.5712 15.8557C52.5101 14.0773 54.0832 9.93412 53.7802 4.77412ZM33.86 15.5118C32.3307 14.5857 31.4654 12.3935 31.4863 9.57025C34.3096 9.54632 36.5018 10.4146 37.4279 11.9439C37.9114 12.7414 37.9901 13.6715 37.6731 14.6296L35.2397 12.1961C35.0889 12.0528 34.8881 11.9742 34.6802 11.9768C34.4722 11.9795 34.2735 12.0633 34.1264 12.2104C33.9794 12.3574 33.8956 12.5561 33.8929 12.7641C33.8902 12.972 33.9689 13.1728 34.1122 13.3236L36.5456 15.7571C35.5876 16.0741 34.6585 15.9953 33.86 15.5118ZM48.7448 14.493C47.4089 15.3015 45.8388 15.3633 44.2437 14.6924L49.5961 9.33896C49.7394 9.18818 49.8181 8.9874 49.8154 8.77944C49.8128 8.57148 49.729 8.37278 49.5819 8.22571C49.4348 8.07865 49.2361 7.99485 49.0282 7.99219C48.8202 7.98953 48.6194 8.06821 48.4686 8.21146L43.1152 13.5579C42.4413 11.9628 42.5021 10.3917 43.3146 9.05684C44.7043 6.76395 48.0001 5.48592 52.22 5.58461C52.3157 9.80352 51.0397 13.1033 48.7448 14.493Z" fill="#A3A847"/>
</g>
<defs>
<clipPath id="clip0_110_126">
<rect width="25.5208" height="25.5208" fill="white" transform="translate(29.0938)"/>
</clipPath>
</defs>
</svg>
