<svg width="20" height="20" viewBox="0 0 20 20" fill="none" xmlns="http://www.w3.org/2000/svg">
<path d="M14.9998 8.33335L12.4998 5.83335L15.8331 2.50001V4.16668L18.3331 6.66668L16.6665 8.33335L15.8331 7.50001L14.9998 8.33335ZM14.1665 9.16668L11.6665 6.66668L10.8331 7.50001H10.1665L14.1665 11.5V9.16668ZM1.99147 1.44168L0.924805 2.50001L5.9248 7.50001H4.16647L2.4998 5.83335L1.66647 6.66668L4.16647 9.16668V11.6667L3.33314 12.5V17.5H4.9998V15L6.66647 12.5H10.9248L12.4998 14.075V17.5H14.1665V15.7417L17.3665 18.9417L18.4248 17.8833L1.99147 1.44168Z" fill="white"/>
</svg>
