<svg width="20" height="20" viewBox="0 0 20 20" fill="none" xmlns="http://www.w3.org/2000/svg">
<path d="M17.0832 10.8333H18.3332V13.3333H17.0832V10.8333ZM12.0832 7.20833H13.3582C14.2332 7.20833 14.9998 7.825 14.9998 8.91667V10H16.2498V8.63333C16.2498 7.125 14.9165 6 13.3582 6H12.0832C11.2332 6 10.5415 5.18333 10.5415 4.33333C10.5415 3.48333 11.2332 2.875 12.0832 2.875V1.625C11.3428 1.625 10.6327 1.91912 10.1092 2.44266C9.58562 2.9662 9.2915 3.67627 9.2915 4.41667C9.2915 5.15706 9.58562 5.86713 10.1092 6.39067C10.6327 6.91421 11.3428 7.20833 12.0832 7.20833ZM14.1665 10.8333H12.2165L14.1665 12.7833V10.8333ZM15.7082 3.94167C16.2248 3.43333 16.5415 2.73333 16.5415 1.95833H15.2915C15.2915 2.80833 14.5998 3.5 13.7498 3.5V4.75C15.6165 4.75 17.0832 6.275 17.0832 8.14167V10H18.3332V8.13333C18.3332 6.28333 17.2665 4.68333 15.7082 3.94167ZM14.9998 10.8333H16.2498V13.3333H14.9998V10.8333ZM2.8415 3.825L1.6665 5L7.49984 10.8333H1.6665V13.3333H9.99984L15.8332 19.1667L17.0082 17.9917L2.8415 3.825Z" fill="white"/>
</svg>
