<svg width="40" height="40" viewBox="0 0 40 40" fill="none" xmlns="http://www.w3.org/2000/svg">
<g clip-path="url(#clip0_70_1054)">
<path d="M6.25 28.75H1.25C0.918479 28.75 0.600537 28.8817 0.366117 29.1161C0.131696 29.3505 0 29.6685 0 30L0 35C0 35.3315 0.131696 35.6495 0.366117 35.8839C0.600537 36.1183 0.918479 36.25 1.25 36.25H6.25C6.58152 36.25 6.89946 36.1183 7.13388 35.8839C7.3683 35.6495 7.5 35.3315 7.5 35V30C7.5 29.6685 7.3683 29.3505 7.13388 29.1161C6.89946 28.8817 6.58152 28.75 6.25 28.75ZM6.25 3.75H1.25C0.918479 3.75 0.600537 3.8817 0.366117 4.11612C0.131696 4.35054 0 4.66848 0 5L0 10C0 10.3315 0.131696 10.6495 0.366117 10.8839C0.600537 11.1183 0.918479 11.25 1.25 11.25H6.25C6.58152 11.25 6.89946 11.1183 7.13388 10.8839C7.3683 10.6495 7.5 10.3315 7.5 10V5C7.5 4.66848 7.3683 4.35054 7.13388 4.11612C6.89946 3.8817 6.58152 3.75 6.25 3.75ZM6.25 16.25H1.25C0.918479 16.25 0.600537 16.3817 0.366117 16.6161C0.131696 16.8505 0 17.1685 0 17.5L0 22.5C0 22.8315 0.131696 23.1495 0.366117 23.3839C0.600537 23.6183 0.918479 23.75 1.25 23.75H6.25C6.58152 23.75 6.89946 23.6183 7.13388 23.3839C7.3683 23.1495 7.5 22.8315 7.5 22.5V17.5C7.5 17.1685 7.3683 16.8505 7.13388 16.6161C6.89946 16.3817 6.58152 16.25 6.25 16.25ZM38.75 30H13.75C13.4185 30 13.1005 30.1317 12.8661 30.3661C12.6317 30.6005 12.5 30.9185 12.5 31.25V33.75C12.5 34.0815 12.6317 34.3995 12.8661 34.6339C13.1005 34.8683 13.4185 35 13.75 35H38.75C39.0815 35 39.3995 34.8683 39.6339 34.6339C39.8683 34.3995 40 34.0815 40 33.75V31.25C40 30.9185 39.8683 30.6005 39.6339 30.3661C39.3995 30.1317 39.0815 30 38.75 30ZM38.75 5H13.75C13.4185 5 13.1005 5.1317 12.8661 5.36612C12.6317 5.60054 12.5 5.91848 12.5 6.25V8.75C12.5 9.08152 12.6317 9.39946 12.8661 9.63388C13.1005 9.8683 13.4185 10 13.75 10H38.75C39.0815 10 39.3995 9.8683 39.6339 9.63388C39.8683 9.39946 40 9.08152 40 8.75V6.25C40 5.91848 39.8683 5.60054 39.6339 5.36612C39.3995 5.1317 39.0815 5 38.75 5ZM38.75 17.5H13.75C13.4185 17.5 13.1005 17.6317 12.8661 17.8661C12.6317 18.1005 12.5 18.4185 12.5 18.75V21.25C12.5 21.5815 12.6317 21.8995 12.8661 22.1339C13.1005 22.3683 13.4185 22.5 13.75 22.5H38.75C39.0815 22.5 39.3995 22.3683 39.6339 22.1339C39.8683 21.8995 40 21.5815 40 21.25V18.75C40 18.4185 39.8683 18.1005 39.6339 17.8661C39.3995 17.6317 39.0815 17.5 38.75 17.5Z" fill="black"/>
</g>
<defs>
<clipPath id="clip0_70_1054">
<rect width="40" height="40" fill="white"/>
</clipPath>
</defs>
</svg>
