<svg width="40" height="40" viewBox="0 0 40 40" fill="none" xmlns="http://www.w3.org/2000/svg">
<path fill-rule="evenodd" clip-rule="evenodd" d="M6.66683 6.66699C5.78277 6.66699 4.93493 7.01818 4.30981 7.6433C3.68469 8.26842 3.3335 9.11627 3.3335 10.0003V30.0003C3.3335 30.8844 3.68469 31.7322 4.30981 32.3573C4.93493 32.9825 5.78277 33.3337 6.66683 33.3337H33.3335C34.2176 33.3337 35.0654 32.9825 35.6905 32.3573C36.3156 31.7322 36.6668 30.8844 36.6668 30.0003V10.0003C36.6668 9.11627 36.3156 8.26842 35.6905 7.6433C35.0654 7.01818 34.2176 6.66699 33.3335 6.66699H6.66683ZM23.3335 15.0003C23.3335 14.5583 23.5091 14.1344 23.8217 13.8218C24.1342 13.5093 24.5581 13.3337 25.0002 13.3337H30.0002C30.4422 13.3337 30.8661 13.5093 31.1787 13.8218C31.4912 14.1344 31.6668 14.5583 31.6668 15.0003C31.6668 15.4424 31.4912 15.8663 31.1787 16.1788C30.8661 16.4914 30.4422 16.667 30.0002 16.667H25.0002C24.5581 16.667 24.1342 16.4914 23.8217 16.1788C23.5091 15.8663 23.3335 15.4424 23.3335 15.0003ZM23.3335 20.0003C23.3335 19.5583 23.5091 19.1344 23.8217 18.8218C24.1342 18.5093 24.5581 18.3337 25.0002 18.3337H30.0002C30.4422 18.3337 30.8661 18.5093 31.1787 18.8218C31.4912 19.1344 31.6668 19.5583 31.6668 20.0003C31.6668 20.4424 31.4912 20.8663 31.1787 21.1788C30.8661 21.4914 30.4422 21.667 30.0002 21.667H25.0002C24.5581 21.667 24.1342 21.4914 23.8217 21.1788C23.5091 20.8663 23.3335 20.4424 23.3335 20.0003ZM23.3335 25.0003C23.3335 24.5583 23.5091 24.1344 23.8217 23.8218C24.1342 23.5093 24.5581 23.3337 25.0002 23.3337H30.0002C30.4422 23.3337 30.8661 23.5093 31.1787 23.8218C31.4912 24.1344 31.6668 24.5583 31.6668 25.0003C31.6668 25.4424 31.4912 25.8663 31.1787 26.1788C30.8661 26.4914 30.4422 26.667 30.0002 26.667H25.0002C24.5581 26.667 24.1342 26.4914 23.8217 26.1788C23.5091 25.8663 23.3335 25.4424 23.3335 25.0003ZM10.0002 16.667C10.0002 15.3409 10.5269 14.0691 11.4646 13.1315C12.4023 12.1938 13.6741 11.667 15.0002 11.667C16.3262 11.667 17.598 12.1938 18.5357 13.1315C19.4734 14.0691 20.0002 15.3409 20.0002 16.667C20.0002 17.9931 19.4734 19.2648 18.5357 20.2025C17.598 21.1402 16.3262 21.667 15.0002 21.667C13.6741 21.667 12.4023 21.1402 11.4646 20.2025C10.5269 19.2648 10.0002 17.9931 10.0002 16.667ZM13.2368 23.3337C12.1872 23.3333 11.1641 23.6632 10.3125 24.2768C9.46082 24.8903 8.82386 25.7563 8.49183 26.752L8.4185 26.9737L8.41183 26.9937C8.34183 27.2037 8.32016 27.272 8.34183 27.3187C8.35183 27.3403 8.37516 27.357 8.40516 27.3837C8.4585 27.4253 8.5385 27.4903 8.6485 27.642C8.80292 27.8561 9.00599 28.0304 9.24099 28.1507C9.47599 28.2709 9.73619 28.3337 10.0002 28.3337H20.0002C20.2641 28.3337 20.5243 28.2709 20.7593 28.1507C20.9943 28.0304 21.1974 27.8561 21.3518 27.642C21.4193 27.544 21.5014 27.4569 21.5952 27.3837C21.6268 27.357 21.6468 27.3403 21.6585 27.317C21.6818 27.272 21.6585 27.2037 21.5885 26.9937L21.5818 26.9737L21.5085 26.752C21.1766 25.7565 20.5398 24.8908 19.6885 24.2773C18.8372 23.6638 17.8145 23.3336 16.7652 23.3337H13.2368Z" fill="black"/>
</svg>
