<svg width="20" height="20" viewBox="0 0 20 20" fill="none" xmlns="http://www.w3.org/2000/svg">
<path d="M9.99979 14.3958L6.54145 16.4792C6.38867 16.5764 6.22895 16.6181 6.06229 16.6042C5.89562 16.5903 5.74979 16.5347 5.62479 16.4375C5.49979 16.3403 5.40256 16.2189 5.33312 16.0733C5.26367 15.9278 5.24979 15.7645 5.29145 15.5833L6.20812 11.6458L3.14562 9.00001C3.00673 8.87501 2.92006 8.7325 2.88562 8.5725C2.85117 8.4125 2.86145 8.25639 2.91645 8.10417C2.97145 7.95195 3.05479 7.82695 3.16645 7.72917C3.27812 7.63139 3.4309 7.56889 3.62479 7.54167L7.66645 7.18751L9.22895 3.47917C9.2984 3.31251 9.40617 3.1875 9.55229 3.10417C9.6984 3.02084 9.84756 2.97917 9.99979 2.97917C10.152 2.97917 10.3012 3.02084 10.4473 3.10417C10.5934 3.1875 10.7012 3.31251 10.7706 3.47917L12.3331 7.18751L16.3748 7.54167C16.5692 7.56945 16.722 7.63195 16.8331 7.72917C16.9442 7.82639 17.0276 7.95139 17.0831 8.10417C17.1387 8.25695 17.1492 8.41334 17.1148 8.57334C17.0803 8.73334 16.9934 8.87556 16.854 9.00001L13.7915 11.6458L14.7081 15.5833C14.7498 15.7639 14.7359 15.9272 14.6665 16.0733C14.597 16.2194 14.4998 16.3408 14.3748 16.4375C14.2498 16.5342 14.104 16.5897 13.9373 16.6042C13.7706 16.6186 13.6109 16.5769 13.4581 16.4792L9.99979 14.3958Z" fill="#59642F"/>
</svg>
