<svg width="20" height="20" viewBox="0 0 20 20" fill="none" xmlns="http://www.w3.org/2000/svg">
<path d="M17.3665 18.9416L12.6165 14.1917C11.0498 15.6583 9.0998 16.6667 6.66647 16.6667C6.36647 16.6667 5.9498 16.5583 5.5498 16.4167L4.75814 18.3333L3.18314 17.7833C4.29147 15.025 5.41647 11.9333 8.0498 9.62498L7.30814 8.88332C5.63314 10.025 4.0498 11.75 3.1248 14.375C3.1248 14.375 1.66647 12.9167 1.66647 11.25C1.66647 9.99998 2.5998 7.76665 4.76647 6.34165L0.924805 2.49998L1.99147 1.44165L13.6581 13.1167L18.4248 17.8833L17.3665 18.9416ZM14.1665 6.66665C12.7915 6.97498 11.6081 7.39998 10.5831 7.91665L14.5831 11.9083C17.3915 7.79165 18.3331 2.49998 18.3331 2.49998C17.5248 4.12498 11.9581 4.36665 7.81647 5.14998L10.1248 7.45832C12.3415 6.66665 14.1665 6.66665 14.1665 6.66665Z" fill="#fff"/>
</svg>
